{
    "asset" : {
        "generator" : "Khronos glTF Blender I/O v1.6.16",
        "version" : "2.0"
    },
    "scene" : 0,
    "scenes" : [
        {
            "name" : "Scene",
            "nodes" : [
                0
            ]
        }
    ],
    "nodes" : [
        {
            "mesh" : 0,
            "name" : "Cube.014"
        }
    ],
    "materials" : [
        {
            "doubleSided" : true,
            "name" : "BLACK",
            "pbrMetallicRoughness" : {
                "baseColorFactor" : [
                    0,
                    0,
                    0,
                    1
                ],
                "metallicFactor" : 0
            }
        },
        {
            "doubleSided" : true,
            "name" : "FloorPanel2",
            "pbrMetallicRoughness" : {
                "baseColorTexture" : {
                    "index" : 0
                },
                "metallicFactor" : 0,
                "roughnessFactor" : 0.5
            }
        },
        {
            "doubleSided" : true,
            "name" : "Wallpanel4",
            "pbrMetallicRoughness" : {
                "baseColorTexture" : {
                    "index" : 1
                },
                "metallicFactor" : 0,
                "roughnessFactor" : 0.5
            }
        }
    ],
    "meshes" : [
        {
            "name" : "Cube.014",
            "primitives" : [
                {
                    "attributes" : {
                        "POSITION" : 0,
                        "NORMAL" : 1,
                        "TEXCOORD_0" : 2
                    },
                    "indices" : 3,
                    "material" : 0
                },
                {
                    "attributes" : {
                        "POSITION" : 4,
                        "NORMAL" : 5,
                        "TEXCOORD_0" : 6
                    },
                    "indices" : 7,
                    "material" : 1
                },
                {
                    "attributes" : {
                        "POSITION" : 8,
                        "NORMAL" : 9,
                        "TEXCOORD_0" : 10
                    },
                    "indices" : 11,
                    "material" : 2
                }
            ]
        }
    ],
    "textures" : [
        {
            "sampler" : 0,
            "source" : 0
        },
        {
            "sampler" : 0,
            "source" : 1
        }
    ],
    "images" : [
        {
            "bufferView" : 8,
            "mimeType" : "image/png",
            "name" : "blue_concrete_powder"
        },
        {
            "bufferView" : 13,
            "mimeType" : "image/png",
            "name" : "bee_nest_side"
        }
    ],
    "accessors" : [
        {
            "bufferView" : 0,
            "componentType" : 5126,
            "count" : 420,
            "max" : [
                5,
                10,
                5
            ],
            "min" : [
                -5,
                -1,
                -5
            ],
            "type" : "VEC3"
        },
        {
            "bufferView" : 1,
            "componentType" : 5126,
            "count" : 420,
            "type" : "VEC3"
        },
        {
            "bufferView" : 2,
            "componentType" : 5126,
            "count" : 420,
            "type" : "VEC2"
        },
        {
            "bufferView" : 3,
            "componentType" : 5123,
            "count" : 630,
            "type" : "SCALAR"
        },
        {
            "bufferView" : 4,
            "componentType" : 5126,
            "count" : 40,
            "max" : [
                3,
                0,
                3
            ],
            "min" : [
                -3,
                0,
                -3
            ],
            "type" : "VEC3"
        },
        {
            "bufferView" : 5,
            "componentType" : 5126,
            "count" : 40,
            "type" : "VEC3"
        },
        {
            "bufferView" : 6,
            "componentType" : 5126,
            "count" : 40,
            "type" : "VEC2"
        },
        {
            "bufferView" : 7,
            "componentType" : 5123,
            "count" : 60,
            "type" : "SCALAR"
        },
        {
            "bufferView" : 9,
            "componentType" : 5126,
            "count" : 220,
            "max" : [
                5,
                2,
                5
            ],
            "min" : [
                -5,
                0,
                -5
            ],
            "type" : "VEC3"
        },
        {
            "bufferView" : 10,
            "componentType" : 5126,
            "count" : 220,
            "type" : "VEC3"
        },
        {
            "bufferView" : 11,
            "componentType" : 5126,
            "count" : 220,
            "type" : "VEC2"
        },
        {
            "bufferView" : 12,
            "componentType" : 5123,
            "count" : 330,
            "type" : "SCALAR"
        }
    ],
    "bufferViews" : [
        {
            "buffer" : 0,
            "byteLength" : 5040,
            "byteOffset" : 0
        },
        {
            "buffer" : 0,
            "byteLength" : 5040,
            "byteOffset" : 5040
        },
        {
            "buffer" : 0,
            "byteLength" : 3360,
            "byteOffset" : 10080
        },
        {
            "buffer" : 0,
            "byteLength" : 1260,
            "byteOffset" : 13440
        },
        {
            "buffer" : 0,
            "byteLength" : 480,
            "byteOffset" : 14700
        },
        {
            "buffer" : 0,
            "byteLength" : 480,
            "byteOffset" : 15180
        },
        {
            "buffer" : 0,
            "byteLength" : 320,
            "byteOffset" : 15660
        },
        {
            "buffer" : 0,
            "byteLength" : 120,
            "byteOffset" : 15980
        },
        {
            "buffer" : 0,
            "byteLength" : 15275,
            "byteOffset" : 16100
        },
        {
            "buffer" : 0,
            "byteLength" : 2640,
            "byteOffset" : 31376
        },
        {
            "buffer" : 0,
            "byteLength" : 2640,
            "byteOffset" : 34016
        },
        {
            "buffer" : 0,
            "byteLength" : 1760,
            "byteOffset" : 36656
        },
        {
            "buffer" : 0,
            "byteLength" : 660,
            "byteOffset" : 38416
        },
        {
            "buffer" : 0,
            "byteLength" : 14834,
            "byteOffset" : 39076
        }
    ],
    "samplers" : [
        {
            "magFilter" : 9728,
            "minFilter" : 9984
        }
    ],
    "buffers" : [
        {
            "byteLength" : 53912,
            "uri" : "data:application/octet-stream;base64,"
        }
    ]
}
