{
    "asset" : {
        "generator" : "Khronos glTF Blender I/O v1.6.16",
        "version" : "2.0"
    },
    "scene" : 0,
    "scenes" : [
        {
            "name" : "Scene",
            "nodes" : [
                0
            ]
        }
    ],
    "nodes" : [
        {
            "mesh" : 0,
            "name" : "Cube.003"
        }
    ],
    "materials" : [
        {
            "doubleSided" : true,
            "name" : "BLACK",
            "pbrMetallicRoughness" : {
                "baseColorFactor" : [
                    0,
                    0,
                    0,
                    1
                ],
                "metallicFactor" : 0
            }
        },
        {
            "doubleSided" : true,
            "name" : "Wallpanel3",
            "pbrMetallicRoughness" : {
                "baseColorTexture" : {
                    "index" : 0
                },
                "metallicFactor" : 0,
                "roughnessFactor" : 0.5
            }
        }
    ],
    "meshes" : [
        {
            "name" : "Cube.003",
            "primitives" : [
                {
                    "attributes" : {
                        "POSITION" : 0,
                        "NORMAL" : 1,
                        "TEXCOORD_0" : 2
                    },
                    "indices" : 3,
                    "material" : 0
                },
                {
                    "attributes" : {
                        "POSITION" : 4,
                        "NORMAL" : 5,
                        "TEXCOORD_0" : 6
                    },
                    "indices" : 7,
                    "material" : 1
                }
            ]
        }
    ],
    "textures" : [
        {
            "sampler" : 0,
            "source" : 0
        }
    ],
    "images" : [
        {
            "bufferView" : 8,
            "mimeType" : "image/png",
            "name" : "barrel_bottom"
        }
    ],
    "accessors" : [
        {
            "bufferView" : 0,
            "componentType" : 5126,
            "count" : 20,
            "max" : [
                1,
                10,
                1
            ],
            "min" : [
                -1,
                2,
                -1
            ],
            "type" : "VEC3"
        },
        {
            "bufferView" : 1,
            "componentType" : 5126,
            "count" : 20,
            "type" : "VEC3"
        },
        {
            "bufferView" : 2,
            "componentType" : 5126,
            "count" : 20,
            "type" : "VEC2"
        },
        {
            "bufferView" : 3,
            "componentType" : 5123,
            "count" : 30,
            "type" : "SCALAR"
        },
        {
            "bufferView" : 4,
            "componentType" : 5126,
            "count" : 20,
            "max" : [
                1,
                2,
                1
            ],
            "min" : [
                -1,
                0,
                -1
            ],
            "type" : "VEC3"
        },
        {
            "bufferView" : 5,
            "componentType" : 5126,
            "count" : 20,
            "type" : "VEC3"
        },
        {
            "bufferView" : 6,
            "componentType" : 5126,
            "count" : 20,
            "type" : "VEC2"
        },
        {
            "bufferView" : 7,
            "componentType" : 5123,
            "count" : 30,
            "type" : "SCALAR"
        }
    ],
    "bufferViews" : [
        {
            "buffer" : 0,
            "byteLength" : 240,
            "byteOffset" : 0
        },
        {
            "buffer" : 0,
            "byteLength" : 240,
            "byteOffset" : 240
        },
        {
            "buffer" : 0,
            "byteLength" : 160,
            "byteOffset" : 480
        },
        {
            "buffer" : 0,
            "byteLength" : 60,
            "byteOffset" : 640
        },
        {
            "buffer" : 0,
            "byteLength" : 240,
            "byteOffset" : 700
        },
        {
            "buffer" : 0,
            "byteLength" : 240,
            "byteOffset" : 940
        },
        {
            "buffer" : 0,
            "byteLength" : 160,
            "byteOffset" : 1180
        },
        {
            "buffer" : 0,
            "byteLength" : 60,
            "byteOffset" : 1340
        },
        {
            "buffer" : 0,
            "byteLength" : 105654,
            "byteOffset" : 1400
        }
    ],
    "samplers" : [
        {
            "magFilter" : 9728,
            "minFilter" : 9984
        }
    ],
    "buffers" : [
        {
            "byteLength" : 107056,
            "uri" : "data:application/octet-stream;base64,"
        }
    ]
}
